<mxfile host="app.diagrams.net" modified="2021-05-10T17:43:10.215Z" agent="5.0 (Windows NT 10.0; Win64; x64) AppleWebKit/537.36 (KHTML, like Gecko) Chrome/90.0.4430.93 Safari/537.36" etag="aZHeM_vd2INKy4hADmrW" version="14.6.11" type="github">
  <diagram id="kgpKYQtTHZ0yAKxKKP6v" name="Page-1">
    <mxGraphModel dx="1185" dy="588" grid="1" gridSize="10" guides="1" tooltips="1" connect="1" arrows="1" fold="1" page="1" pageScale="1" pageWidth="1400" pageHeight="2000" math="0" shadow="0">
      <root>
        <mxCell id="0" />
        <mxCell id="1" parent="0" />
        <mxCell id="IShbP4hHe31vie19D_xC-3" value=":Authentication&#xa;Checker" style="shape=umlLifeline;perimeter=lifelinePerimeter;container=1;collapsible=0;recursiveResize=0;rounded=0;shadow=0;strokeWidth=1;" vertex="1" parent="1">
          <mxGeometry x="750" y="160" width="100" height="1200" as="geometry" />
        </mxCell>
        <mxCell id="IShbP4hHe31vie19D_xC-4" value="" style="points=[];perimeter=orthogonalPerimeter;rounded=0;shadow=0;strokeWidth=1;" vertex="1" parent="IShbP4hHe31vie19D_xC-3">
          <mxGeometry x="45" y="150" width="10" height="30" as="geometry" />
        </mxCell>
        <mxCell id="IShbP4hHe31vie19D_xC-5" value=":SearchGuestView" style="shape=umlLifeline;perimeter=lifelinePerimeter;container=1;collapsible=0;recursiveResize=0;rounded=0;shadow=0;strokeWidth=1;" vertex="1" parent="1">
          <mxGeometry x="290" y="160" width="100" height="1520" as="geometry" />
        </mxCell>
        <mxCell id="IShbP4hHe31vie19D_xC-6" value="" style="points=[];perimeter=orthogonalPerimeter;rounded=0;shadow=0;strokeWidth=1;" vertex="1" parent="IShbP4hHe31vie19D_xC-5">
          <mxGeometry x="45" y="100" width="10" height="540" as="geometry" />
        </mxCell>
        <mxCell id="IShbP4hHe31vie19D_xC-7" value="View Controller" style="shape=umlLifeline;perimeter=lifelinePerimeter;container=1;collapsible=0;recursiveResize=0;rounded=0;shadow=0;strokeWidth=1;" vertex="1" parent="1">
          <mxGeometry x="532" y="160" width="100" height="1500" as="geometry" />
        </mxCell>
        <mxCell id="IShbP4hHe31vie19D_xC-8" value="" style="points=[];perimeter=orthogonalPerimeter;rounded=0;shadow=0;strokeWidth=1;" vertex="1" parent="IShbP4hHe31vie19D_xC-7">
          <mxGeometry x="45" y="75" width="10" height="30" as="geometry" />
        </mxCell>
        <mxCell id="IShbP4hHe31vie19D_xC-98" value="" style="points=[];perimeter=orthogonalPerimeter;rounded=0;shadow=0;strokeWidth=1;" vertex="1" parent="IShbP4hHe31vie19D_xC-7">
          <mxGeometry x="45" y="450" width="10" height="330" as="geometry" />
        </mxCell>
        <mxCell id="IShbP4hHe31vie19D_xC-158" value="" style="points=[];perimeter=orthogonalPerimeter;rounded=0;shadow=0;strokeWidth=1;" vertex="1" parent="IShbP4hHe31vie19D_xC-7">
          <mxGeometry x="45" y="1060" width="10" height="330" as="geometry" />
        </mxCell>
        <mxCell id="IShbP4hHe31vie19D_xC-9" value="valLogin:= Authenticate" style="verticalAlign=bottom;endArrow=block;shadow=0;strokeWidth=1;" edge="1" parent="1">
          <mxGeometry x="-0.2299" relative="1" as="geometry">
            <mxPoint x="345" y="315" as="sourcePoint" />
            <mxPoint x="799.5" y="315" as="targetPoint" />
            <Array as="points">
              <mxPoint x="430" y="315" />
              <mxPoint x="730" y="315" />
            </Array>
            <mxPoint as="offset" />
          </mxGeometry>
        </mxCell>
        <mxCell id="IShbP4hHe31vie19D_xC-10" value="Manager" style="shape=umlActor;verticalLabelPosition=bottom;verticalAlign=top;html=1;outlineConnect=0;" vertex="1" parent="1">
          <mxGeometry x="240" y="130" width="30" height="60" as="geometry" />
        </mxCell>
        <mxCell id="IShbP4hHe31vie19D_xC-11" value="Back Controller" style="shape=umlLifeline;perimeter=lifelinePerimeter;container=1;collapsible=0;recursiveResize=0;rounded=0;shadow=0;strokeWidth=1;" vertex="1" parent="1">
          <mxGeometry x="642" y="160" width="100" height="1200" as="geometry" />
        </mxCell>
        <mxCell id="IShbP4hHe31vie19D_xC-12" value="" style="points=[];perimeter=orthogonalPerimeter;rounded=0;shadow=0;strokeWidth=1;" vertex="1" parent="IShbP4hHe31vie19D_xC-11">
          <mxGeometry x="45" y="235" width="10" height="218" as="geometry" />
        </mxCell>
        <mxCell id="IShbP4hHe31vie19D_xC-124" value="" style="points=[];perimeter=orthogonalPerimeter;rounded=0;shadow=0;strokeWidth=1;" vertex="1" parent="IShbP4hHe31vie19D_xC-11">
          <mxGeometry x="45" y="660" width="10" height="80" as="geometry" />
        </mxCell>
        <mxCell id="IShbP4hHe31vie19D_xC-136" value="" style="points=[];perimeter=orthogonalPerimeter;rounded=0;shadow=0;strokeWidth=1;" vertex="1" parent="IShbP4hHe31vie19D_xC-11">
          <mxGeometry x="45" y="850" width="10" height="210" as="geometry" />
        </mxCell>
        <mxCell id="IShbP4hHe31vie19D_xC-13" value=":SearchBookView" style="shape=umlLifeline;perimeter=lifelinePerimeter;container=1;collapsible=0;recursiveResize=0;rounded=0;shadow=0;strokeWidth=1;" vertex="1" parent="1">
          <mxGeometry x="410" y="160" width="100" height="1480" as="geometry" />
        </mxCell>
        <mxCell id="IShbP4hHe31vie19D_xC-111" value="" style="endArrow=classic;html=1;startArrow=none;startFill=0;" edge="1" parent="IShbP4hHe31vie19D_xC-13">
          <mxGeometry width="50" height="50" relative="1" as="geometry">
            <mxPoint x="-65" y="540" as="sourcePoint" />
            <mxPoint x="170" y="540" as="targetPoint" />
            <Array as="points">
              <mxPoint x="-35" y="540" />
              <mxPoint x="-15" y="540" />
            </Array>
          </mxGeometry>
        </mxCell>
        <mxCell id="IShbP4hHe31vie19D_xC-112" value="provides data (userChoose)" style="edgeLabel;html=1;align=center;verticalAlign=middle;resizable=0;points=[];" vertex="1" connectable="0" parent="IShbP4hHe31vie19D_xC-111">
          <mxGeometry x="-0.167" y="-1" relative="1" as="geometry">
            <mxPoint x="14" y="-11" as="offset" />
          </mxGeometry>
        </mxCell>
        <mxCell id="IShbP4hHe31vie19D_xC-121" value="" style="points=[];perimeter=orthogonalPerimeter;rounded=0;shadow=0;strokeWidth=1;" vertex="1" parent="IShbP4hHe31vie19D_xC-13">
          <mxGeometry x="45" y="780" width="10" height="380" as="geometry" />
        </mxCell>
        <mxCell id="IShbP4hHe31vie19D_xC-15" value="Archiver" style="shape=umlLifeline;perimeter=lifelinePerimeter;container=1;collapsible=0;recursiveResize=0;rounded=0;shadow=0;strokeWidth=1;" vertex="1" parent="1">
          <mxGeometry x="860" y="160" width="100" height="1200" as="geometry" />
        </mxCell>
        <mxCell id="IShbP4hHe31vie19D_xC-17" value="Database&#xa;Connection" style="shape=umlLifeline;perimeter=lifelinePerimeter;container=1;collapsible=0;recursiveResize=0;rounded=0;shadow=0;strokeWidth=1;" vertex="1" parent="1">
          <mxGeometry x="969.9999999999999" y="160" width="100" height="1200" as="geometry" />
        </mxCell>
        <mxCell id="IShbP4hHe31vie19D_xC-75" value="" style="points=[];perimeter=orthogonalPerimeter;rounded=0;shadow=0;strokeWidth=1;" vertex="1" parent="IShbP4hHe31vie19D_xC-17">
          <mxGeometry x="45" y="270" width="10" height="160" as="geometry" />
        </mxCell>
        <mxCell id="IShbP4hHe31vie19D_xC-19" value="Load UC-01" style="text;html=1;strokeColor=none;fillColor=none;align=center;verticalAlign=middle;whiteSpace=wrap;rounded=0;" vertex="1" parent="1">
          <mxGeometry x="810" y="315" width="70.33" height="20" as="geometry" />
        </mxCell>
        <mxCell id="IShbP4hHe31vie19D_xC-20" value="" style="endArrow=classic;html=1;startArrow=oval;startFill=1;" edge="1" parent="1" target="IShbP4hHe31vie19D_xC-7">
          <mxGeometry width="50" height="50" relative="1" as="geometry">
            <mxPoint x="250" y="240" as="sourcePoint" />
            <mxPoint x="339.5000000000002" y="240" as="targetPoint" />
            <Array as="points">
              <mxPoint x="300" y="240" />
              <mxPoint x="320" y="240" />
            </Array>
          </mxGeometry>
        </mxCell>
        <mxCell id="IShbP4hHe31vie19D_xC-21" value="Click&lt;br&gt;Issue Books&lt;br&gt;Menu" style="edgeLabel;html=1;align=center;verticalAlign=middle;resizable=0;points=[];" vertex="1" connectable="0" parent="IShbP4hHe31vie19D_xC-20">
          <mxGeometry x="-0.167" y="-1" relative="1" as="geometry">
            <mxPoint x="-98" y="19" as="offset" />
          </mxGeometry>
        </mxCell>
        <mxCell id="IShbP4hHe31vie19D_xC-22" value="" style="endArrow=classic;html=1;startArrow=oval;startFill=1;" edge="1" parent="1">
          <mxGeometry width="50" height="50" relative="1" as="geometry">
            <mxPoint x="250" y="370" as="sourcePoint" />
            <mxPoint x="340" y="370" as="targetPoint" />
            <Array as="points">
              <mxPoint x="280" y="370" />
              <mxPoint x="300" y="370" />
            </Array>
          </mxGeometry>
        </mxCell>
        <mxCell id="IShbP4hHe31vie19D_xC-23" value="Input&lt;br&gt;Information of&lt;br&gt;Guest&lt;br&gt;(userInput)" style="edgeLabel;html=1;align=center;verticalAlign=middle;resizable=0;points=[];" vertex="1" connectable="0" parent="IShbP4hHe31vie19D_xC-22">
          <mxGeometry x="-0.167" y="-1" relative="1" as="geometry">
            <mxPoint x="3" y="29" as="offset" />
          </mxGeometry>
        </mxCell>
        <mxCell id="IShbP4hHe31vie19D_xC-24" value="" style="endArrow=none;dashed=1;html=1;" edge="1" parent="1">
          <mxGeometry width="50" height="50" relative="1" as="geometry">
            <mxPoint x="250" y="1680" as="sourcePoint" />
            <mxPoint x="250" y="220" as="targetPoint" />
          </mxGeometry>
        </mxCell>
        <mxCell id="IShbP4hHe31vie19D_xC-31" value="Database" style="shape=umlActor;verticalLabelPosition=bottom;verticalAlign=top;html=1;outlineConnect=0;" vertex="1" parent="1">
          <mxGeometry x="1119.67" y="130" width="30" height="60" as="geometry" />
        </mxCell>
        <mxCell id="IShbP4hHe31vie19D_xC-34" value="" style="endArrow=none;dashed=1;html=1;" edge="1" parent="1">
          <mxGeometry width="50" height="50" relative="1" as="geometry">
            <mxPoint x="1135.67" y="1360" as="sourcePoint" />
            <mxPoint x="1135.17" y="210" as="targetPoint" />
          </mxGeometry>
        </mxCell>
        <mxCell id="IShbP4hHe31vie19D_xC-37" value="" style="verticalAlign=bottom;endArrow=block;shadow=0;strokeWidth=1;dashed=1;" edge="1" parent="1" target="IShbP4hHe31vie19D_xC-17">
          <mxGeometry x="0.2658" relative="1" as="geometry">
            <mxPoint x="1134" y="550" as="sourcePoint" />
            <mxPoint x="1023.6666666666665" y="550" as="targetPoint" />
            <Array as="points">
              <mxPoint x="1084" y="550" />
            </Array>
            <mxPoint as="offset" />
          </mxGeometry>
        </mxCell>
        <mxCell id="IShbP4hHe31vie19D_xC-85" value="return (userList)" style="edgeLabel;html=1;align=center;verticalAlign=middle;resizable=0;points=[];" vertex="1" connectable="0" parent="IShbP4hHe31vie19D_xC-37">
          <mxGeometry x="0.207" y="4" relative="1" as="geometry">
            <mxPoint x="15" y="6" as="offset" />
          </mxGeometry>
        </mxCell>
        <mxCell id="IShbP4hHe31vie19D_xC-38" value="" style="verticalAlign=bottom;endArrow=block;shadow=0;strokeWidth=1;dashed=1;" edge="1" parent="1">
          <mxGeometry x="0.2658" relative="1" as="geometry">
            <mxPoint x="799.5" y="334.56999999999994" as="sourcePoint" />
            <mxPoint x="339.66666666666674" y="334.56999999999994" as="targetPoint" />
            <Array as="points">
              <mxPoint x="741.02" y="334.57" />
              <mxPoint x="621.02" y="334.57" />
            </Array>
            <mxPoint as="offset" />
          </mxGeometry>
        </mxCell>
        <mxCell id="IShbP4hHe31vie19D_xC-67" value="" style="endArrow=classic;html=1;strokeWidth=1;" edge="1" parent="1" target="IShbP4hHe31vie19D_xC-5">
          <mxGeometry width="50" height="50" relative="1" as="geometry">
            <mxPoint x="582" y="260" as="sourcePoint" />
            <mxPoint x="632" y="210" as="targetPoint" />
          </mxGeometry>
        </mxCell>
        <mxCell id="IShbP4hHe31vie19D_xC-68" value="render&lt;br&gt;Search Guest&lt;br&gt;Page" style="edgeLabel;html=1;align=center;verticalAlign=middle;resizable=0;points=[];" vertex="1" connectable="0" parent="IShbP4hHe31vie19D_xC-67">
          <mxGeometry x="-0.3237" y="-3" relative="1" as="geometry">
            <mxPoint x="-100" y="23" as="offset" />
          </mxGeometry>
        </mxCell>
        <mxCell id="IShbP4hHe31vie19D_xC-72" value="provides data (userInput)" style="verticalAlign=bottom;endArrow=block;shadow=0;strokeWidth=1;" edge="1" parent="1" target="IShbP4hHe31vie19D_xC-11">
          <mxGeometry x="0.0304" relative="1" as="geometry">
            <mxPoint x="337.75" y="400" as="sourcePoint" />
            <mxPoint x="760" y="400" as="targetPoint" />
            <Array as="points">
              <mxPoint x="422.75" y="400" />
              <mxPoint x="640" y="400" />
            </Array>
            <mxPoint as="offset" />
          </mxGeometry>
        </mxCell>
        <mxCell id="IShbP4hHe31vie19D_xC-73" value="" style="endArrow=classic;html=1;" edge="1" parent="1">
          <mxGeometry width="50" height="50" relative="1" as="geometry">
            <mxPoint x="698" y="430" as="sourcePoint" />
            <mxPoint x="1017.5" y="430" as="targetPoint" />
          </mxGeometry>
        </mxCell>
        <mxCell id="IShbP4hHe31vie19D_xC-74" value="convey request (SearchRequest)" style="edgeLabel;html=1;align=center;verticalAlign=middle;resizable=0;points=[];" vertex="1" connectable="0" parent="IShbP4hHe31vie19D_xC-73">
          <mxGeometry x="0.0824" y="1" relative="1" as="geometry">
            <mxPoint x="-40" y="11" as="offset" />
          </mxGeometry>
        </mxCell>
        <mxCell id="IShbP4hHe31vie19D_xC-76" value="" style="endArrow=classic;html=1;" edge="1" parent="1">
          <mxGeometry width="50" height="50" relative="1" as="geometry">
            <mxPoint x="1020" y="500" as="sourcePoint" />
            <mxPoint x="1140" y="500" as="targetPoint" />
          </mxGeometry>
        </mxCell>
        <mxCell id="IShbP4hHe31vie19D_xC-81" value="retrieves user data" style="edgeLabel;html=1;align=center;verticalAlign=middle;resizable=0;points=[];" vertex="1" connectable="0" parent="IShbP4hHe31vie19D_xC-76">
          <mxGeometry x="-0.4583" y="-2" relative="1" as="geometry">
            <mxPoint x="22" y="8" as="offset" />
          </mxGeometry>
        </mxCell>
        <mxCell id="IShbP4hHe31vie19D_xC-78" value="" style="endArrow=classic;html=1;edgeStyle=orthogonalEdgeStyle;" edge="1" parent="1">
          <mxGeometry width="50" height="50" relative="1" as="geometry">
            <mxPoint x="1025.0000000000002" y="450" as="sourcePoint" />
            <mxPoint x="1025.0000000000002" y="480.02857142857147" as="targetPoint" />
            <Array as="points">
              <mxPoint x="1070" y="450" />
              <mxPoint x="1070" y="480" />
            </Array>
          </mxGeometry>
        </mxCell>
        <mxCell id="IShbP4hHe31vie19D_xC-79" value="&amp;lt;&amp;lt;generate&amp;gt;&amp;gt;&lt;br&gt;user search&lt;br&gt;query" style="edgeLabel;html=1;align=center;verticalAlign=middle;resizable=0;points=[];labelBackgroundColor=none;" vertex="1" connectable="0" parent="IShbP4hHe31vie19D_xC-78">
          <mxGeometry x="0.8858" y="-1" relative="1" as="geometry">
            <mxPoint x="68" y="-19" as="offset" />
          </mxGeometry>
        </mxCell>
        <mxCell id="IShbP4hHe31vie19D_xC-90" value="" style="verticalAlign=bottom;endArrow=block;shadow=0;strokeWidth=1;dashed=1;" edge="1" parent="1">
          <mxGeometry x="0.2658" relative="1" as="geometry">
            <mxPoint x="1015.0000000000002" y="590" as="sourcePoint" />
            <mxPoint x="700" y="590" as="targetPoint" />
            <Array as="points">
              <mxPoint x="956.52" y="590" />
              <mxPoint x="865.17" y="590" />
              <mxPoint x="836.52" y="590" />
            </Array>
            <mxPoint as="offset" />
          </mxGeometry>
        </mxCell>
        <mxCell id="IShbP4hHe31vie19D_xC-91" value="return (userList)" style="edgeLabel;html=1;align=center;verticalAlign=middle;resizable=0;points=[];" vertex="1" connectable="0" parent="IShbP4hHe31vie19D_xC-90">
          <mxGeometry x="0.8832" y="-1" relative="1" as="geometry">
            <mxPoint x="142" y="11" as="offset" />
          </mxGeometry>
        </mxCell>
        <mxCell id="IShbP4hHe31vie19D_xC-92" value="VARIATE!!!!!" style="text;html=1;strokeColor=none;fillColor=none;align=center;verticalAlign=middle;whiteSpace=wrap;rounded=0;" vertex="1" parent="1">
          <mxGeometry x="1160" y="530" width="40" height="20" as="geometry" />
        </mxCell>
        <mxCell id="IShbP4hHe31vie19D_xC-101" value="" style="endArrow=classic;html=1;entryX=0.55;entryY=0.008;entryDx=0;entryDy=0;entryPerimeter=0;" edge="1" parent="1" source="IShbP4hHe31vie19D_xC-11" target="IShbP4hHe31vie19D_xC-98">
          <mxGeometry width="50" height="50" relative="1" as="geometry">
            <mxPoint x="686.8300000000003" y="610" as="sourcePoint" />
            <mxPoint x="590" y="610" as="targetPoint" />
            <Array as="points" />
          </mxGeometry>
        </mxCell>
        <mxCell id="IShbP4hHe31vie19D_xC-102" value="provides data&lt;br&gt;(userList)" style="edgeLabel;html=1;align=center;verticalAlign=middle;resizable=0;points=[];" vertex="1" connectable="0" parent="IShbP4hHe31vie19D_xC-101">
          <mxGeometry x="-0.1533" y="2" relative="1" as="geometry">
            <mxPoint x="-6" y="18" as="offset" />
          </mxGeometry>
        </mxCell>
        <mxCell id="IShbP4hHe31vie19D_xC-103" value="" style="endArrow=classic;html=1;" edge="1" parent="1">
          <mxGeometry width="50" height="50" relative="1" as="geometry">
            <mxPoint x="580.9200000000002" y="650" as="sourcePoint" />
            <mxPoint x="339.08666666666676" y="650" as="targetPoint" />
            <Array as="points" />
          </mxGeometry>
        </mxCell>
        <mxCell id="IShbP4hHe31vie19D_xC-104" value="render userList Component" style="edgeLabel;html=1;align=center;verticalAlign=middle;resizable=0;points=[];" vertex="1" connectable="0" parent="IShbP4hHe31vie19D_xC-103">
          <mxGeometry x="-0.1533" y="2" relative="1" as="geometry">
            <mxPoint x="-18" y="-12" as="offset" />
          </mxGeometry>
        </mxCell>
        <mxCell id="IShbP4hHe31vie19D_xC-106" value="" style="endArrow=classic;html=1;startArrow=oval;startFill=1;" edge="1" parent="1">
          <mxGeometry width="50" height="50" relative="1" as="geometry">
            <mxPoint x="250" y="680" as="sourcePoint" />
            <mxPoint x="340" y="680" as="targetPoint" />
            <Array as="points">
              <mxPoint x="280" y="680" />
              <mxPoint x="300" y="680" />
            </Array>
          </mxGeometry>
        </mxCell>
        <mxCell id="IShbP4hHe31vie19D_xC-107" value="Choose User" style="edgeLabel;html=1;align=center;verticalAlign=middle;resizable=0;points=[];" vertex="1" connectable="0" parent="IShbP4hHe31vie19D_xC-106">
          <mxGeometry x="-0.167" y="-1" relative="1" as="geometry">
            <mxPoint x="3" y="9" as="offset" />
          </mxGeometry>
        </mxCell>
        <mxCell id="IShbP4hHe31vie19D_xC-110" value="VARIATE!!!!!" style="text;html=1;strokeColor=none;fillColor=none;align=center;verticalAlign=middle;whiteSpace=wrap;rounded=0;" vertex="1" parent="1">
          <mxGeometry x="170" y="640" width="40" height="20" as="geometry" />
        </mxCell>
        <mxCell id="IShbP4hHe31vie19D_xC-113" value="" style="endArrow=classic;html=1;" edge="1" parent="1">
          <mxGeometry width="50" height="50" relative="1" as="geometry">
            <mxPoint x="580.9199999999998" y="750" as="sourcePoint" />
            <mxPoint x="339.0866666666668" y="750" as="targetPoint" />
            <Array as="points" />
          </mxGeometry>
        </mxCell>
        <mxCell id="IShbP4hHe31vie19D_xC-114" value="render moreInfo Component of (userChoose)" style="edgeLabel;html=1;align=center;verticalAlign=middle;resizable=0;points=[];" vertex="1" connectable="0" parent="IShbP4hHe31vie19D_xC-113">
          <mxGeometry x="-0.1533" y="2" relative="1" as="geometry">
            <mxPoint x="-18" y="-12" as="offset" />
          </mxGeometry>
        </mxCell>
        <mxCell id="IShbP4hHe31vie19D_xC-117" value="" style="endArrow=classic;html=1;startArrow=oval;startFill=1;" edge="1" parent="1">
          <mxGeometry width="50" height="50" relative="1" as="geometry">
            <mxPoint x="250" y="773" as="sourcePoint" />
            <mxPoint x="340" y="773" as="targetPoint" />
            <Array as="points">
              <mxPoint x="280" y="773" />
              <mxPoint x="300" y="773" />
            </Array>
          </mxGeometry>
        </mxCell>
        <mxCell id="IShbP4hHe31vie19D_xC-118" value="Click&lt;br&gt;Proceed Button" style="edgeLabel;html=1;align=center;verticalAlign=middle;resizable=0;points=[];" vertex="1" connectable="0" parent="IShbP4hHe31vie19D_xC-117">
          <mxGeometry x="-0.167" y="-1" relative="1" as="geometry">
            <mxPoint x="3" y="16" as="offset" />
          </mxGeometry>
        </mxCell>
        <mxCell id="IShbP4hHe31vie19D_xC-119" value="" style="endArrow=classic;html=1;startArrow=none;startFill=0;" edge="1" parent="1">
          <mxGeometry width="50" height="50" relative="1" as="geometry">
            <mxPoint x="342.5" y="800" as="sourcePoint" />
            <mxPoint x="577.5" y="800" as="targetPoint" />
            <Array as="points">
              <mxPoint x="372.5" y="800" />
              <mxPoint x="392.5" y="800" />
            </Array>
          </mxGeometry>
        </mxCell>
        <mxCell id="IShbP4hHe31vie19D_xC-120" value="provides proceed message" style="edgeLabel;html=1;align=center;verticalAlign=middle;resizable=0;points=[];" vertex="1" connectable="0" parent="IShbP4hHe31vie19D_xC-119">
          <mxGeometry x="-0.167" y="-1" relative="1" as="geometry">
            <mxPoint x="20" y="-11" as="offset" />
          </mxGeometry>
        </mxCell>
        <mxCell id="IShbP4hHe31vie19D_xC-122" value="" style="endArrow=classic;html=1;" edge="1" parent="1">
          <mxGeometry width="50" height="50" relative="1" as="geometry">
            <mxPoint x="580" y="940" as="sourcePoint" />
            <mxPoint x="461.0866666666668" y="940" as="targetPoint" />
            <Array as="points" />
          </mxGeometry>
        </mxCell>
        <mxCell id="IShbP4hHe31vie19D_xC-123" value="render&lt;br&gt;Search Book&lt;br&gt;Page" style="edgeLabel;html=1;align=center;verticalAlign=middle;resizable=0;points=[];" vertex="1" connectable="0" parent="IShbP4hHe31vie19D_xC-122">
          <mxGeometry x="-0.1533" y="2" relative="1" as="geometry">
            <mxPoint x="-10" y="18" as="offset" />
          </mxGeometry>
        </mxCell>
        <mxCell id="IShbP4hHe31vie19D_xC-125" value="" style="endArrow=classic;html=1;startArrow=none;startFill=0;" edge="1" parent="1">
          <mxGeometry width="50" height="50" relative="1" as="geometry">
            <mxPoint x="580" y="820" as="sourcePoint" />
            <mxPoint x="690" y="820" as="targetPoint" />
            <Array as="points">
              <mxPoint x="610" y="820" />
              <mxPoint x="630" y="820" />
            </Array>
          </mxGeometry>
        </mxCell>
        <mxCell id="IShbP4hHe31vie19D_xC-126" value="provides data&lt;br&gt;(userChoose)" style="edgeLabel;html=1;align=center;verticalAlign=middle;resizable=0;points=[];" vertex="1" connectable="0" parent="IShbP4hHe31vie19D_xC-125">
          <mxGeometry x="-0.167" y="-1" relative="1" as="geometry">
            <mxPoint x="15" y="-21" as="offset" />
          </mxGeometry>
        </mxCell>
        <mxCell id="IShbP4hHe31vie19D_xC-129" value="" style="endArrow=classic;html=1;" edge="1" parent="1">
          <mxGeometry width="50" height="50" relative="1" as="geometry">
            <mxPoint x="690" y="890" as="sourcePoint" />
            <mxPoint x="250" y="890" as="targetPoint" />
            <Array as="points" />
          </mxGeometry>
        </mxCell>
        <mxCell id="IShbP4hHe31vie19D_xC-130" value="&amp;lt;&amp;lt;alert&amp;gt;&amp;gt;selected user is restricted. try again" style="edgeLabel;html=1;align=center;verticalAlign=middle;resizable=0;points=[];" vertex="1" connectable="0" parent="IShbP4hHe31vie19D_xC-129">
          <mxGeometry x="-0.1533" y="2" relative="1" as="geometry">
            <mxPoint x="-43" y="-12" as="offset" />
          </mxGeometry>
        </mxCell>
        <mxCell id="IShbP4hHe31vie19D_xC-133" value="Opt" style="shape=umlFrame;whiteSpace=wrap;html=1;" vertex="1" parent="1">
          <mxGeometry x="210" y="840" width="500" height="70" as="geometry" />
        </mxCell>
        <mxCell id="IShbP4hHe31vie19D_xC-134" value="user of (userChoose)&lt;br&gt;is restricted" style="text;html=1;strokeColor=none;fillColor=none;align=center;verticalAlign=middle;whiteSpace=wrap;rounded=0;" vertex="1" parent="1">
          <mxGeometry x="120" y="840" width="80" height="40" as="geometry" />
        </mxCell>
        <mxCell id="IShbP4hHe31vie19D_xC-135" value="VARIATE!!!!!" style="text;html=1;strokeColor=none;fillColor=none;align=center;verticalAlign=middle;whiteSpace=wrap;rounded=0;" vertex="1" parent="1">
          <mxGeometry x="620" y="760" width="40" height="20" as="geometry" />
        </mxCell>
        <mxCell id="IShbP4hHe31vie19D_xC-137" value="" style="points=[];perimeter=orthogonalPerimeter;rounded=0;shadow=0;strokeWidth=1;" vertex="1" parent="1">
          <mxGeometry x="1015" y="1030" width="10" height="150" as="geometry" />
        </mxCell>
        <mxCell id="IShbP4hHe31vie19D_xC-138" value="" style="endArrow=classic;html=1;startArrow=oval;startFill=1;" edge="1" parent="1">
          <mxGeometry width="50" height="50" relative="1" as="geometry">
            <mxPoint x="249.5" y="980" as="sourcePoint" />
            <mxPoint x="459.0000000000002" y="980" as="targetPoint" />
            <Array as="points">
              <mxPoint x="279.5" y="980" />
              <mxPoint x="299.5" y="980" />
              <mxPoint x="369.5" y="980" />
            </Array>
          </mxGeometry>
        </mxCell>
        <mxCell id="IShbP4hHe31vie19D_xC-139" value="Input&lt;br&gt;Information of Books&lt;br&gt;(bookInput)" style="edgeLabel;html=1;align=center;verticalAlign=middle;resizable=0;points=[];" vertex="1" connectable="0" parent="IShbP4hHe31vie19D_xC-138">
          <mxGeometry x="-0.167" y="-1" relative="1" as="geometry">
            <mxPoint x="8" y="19" as="offset" />
          </mxGeometry>
        </mxCell>
        <mxCell id="IShbP4hHe31vie19D_xC-140" value="" style="verticalAlign=bottom;endArrow=block;shadow=0;strokeWidth=1;dashed=1;" edge="1" parent="1">
          <mxGeometry x="0.2658" relative="1" as="geometry">
            <mxPoint x="1134" y="1150" as="sourcePoint" />
            <mxPoint x="1019.6666666666665" y="1150" as="targetPoint" />
            <Array as="points">
              <mxPoint x="1084" y="1150" />
            </Array>
            <mxPoint as="offset" />
          </mxGeometry>
        </mxCell>
        <mxCell id="IShbP4hHe31vie19D_xC-141" value="return (bookList)" style="edgeLabel;html=1;align=center;verticalAlign=middle;resizable=0;points=[];" vertex="1" connectable="0" parent="IShbP4hHe31vie19D_xC-140">
          <mxGeometry x="0.207" y="4" relative="1" as="geometry">
            <mxPoint x="15" y="6" as="offset" />
          </mxGeometry>
        </mxCell>
        <mxCell id="IShbP4hHe31vie19D_xC-143" value="" style="endArrow=classic;html=1;" edge="1" parent="1">
          <mxGeometry width="50" height="50" relative="1" as="geometry">
            <mxPoint x="698" y="1030" as="sourcePoint" />
            <mxPoint x="1017.5" y="1030" as="targetPoint" />
          </mxGeometry>
        </mxCell>
        <mxCell id="IShbP4hHe31vie19D_xC-144" value="convey request (SearchRequest)" style="edgeLabel;html=1;align=center;verticalAlign=middle;resizable=0;points=[];" vertex="1" connectable="0" parent="IShbP4hHe31vie19D_xC-143">
          <mxGeometry x="0.0824" y="1" relative="1" as="geometry">
            <mxPoint x="-40" y="11" as="offset" />
          </mxGeometry>
        </mxCell>
        <mxCell id="IShbP4hHe31vie19D_xC-145" value="" style="endArrow=classic;html=1;" edge="1" parent="1">
          <mxGeometry width="50" height="50" relative="1" as="geometry">
            <mxPoint x="1020" y="1100" as="sourcePoint" />
            <mxPoint x="1140" y="1100" as="targetPoint" />
          </mxGeometry>
        </mxCell>
        <mxCell id="IShbP4hHe31vie19D_xC-146" value="retrieves user data" style="edgeLabel;html=1;align=center;verticalAlign=middle;resizable=0;points=[];" vertex="1" connectable="0" parent="IShbP4hHe31vie19D_xC-145">
          <mxGeometry x="-0.4583" y="-2" relative="1" as="geometry">
            <mxPoint x="22" y="8" as="offset" />
          </mxGeometry>
        </mxCell>
        <mxCell id="IShbP4hHe31vie19D_xC-147" value="" style="endArrow=classic;html=1;edgeStyle=orthogonalEdgeStyle;" edge="1" parent="1">
          <mxGeometry width="50" height="50" relative="1" as="geometry">
            <mxPoint x="1025" y="1050" as="sourcePoint" />
            <mxPoint x="1025" y="1080.0285714285715" as="targetPoint" />
            <Array as="points">
              <mxPoint x="1070" y="1050" />
              <mxPoint x="1070" y="1080" />
            </Array>
          </mxGeometry>
        </mxCell>
        <mxCell id="IShbP4hHe31vie19D_xC-148" value="&amp;lt;&amp;lt;generate&amp;gt;&amp;gt;&lt;br&gt;book search&lt;br&gt;query" style="edgeLabel;html=1;align=center;verticalAlign=middle;resizable=0;points=[];labelBackgroundColor=none;" vertex="1" connectable="0" parent="IShbP4hHe31vie19D_xC-147">
          <mxGeometry x="0.8858" y="-1" relative="1" as="geometry">
            <mxPoint x="68" y="-19" as="offset" />
          </mxGeometry>
        </mxCell>
        <mxCell id="IShbP4hHe31vie19D_xC-149" value="" style="verticalAlign=bottom;endArrow=block;shadow=0;strokeWidth=1;dashed=1;" edge="1" parent="1">
          <mxGeometry x="0.2658" relative="1" as="geometry">
            <mxPoint x="1015" y="1180" as="sourcePoint" />
            <mxPoint x="700" y="1180" as="targetPoint" />
            <Array as="points">
              <mxPoint x="956.52" y="1180" />
              <mxPoint x="865.17" y="1180" />
              <mxPoint x="836.52" y="1180" />
            </Array>
            <mxPoint as="offset" />
          </mxGeometry>
        </mxCell>
        <mxCell id="IShbP4hHe31vie19D_xC-150" value="return (bookList)" style="edgeLabel;html=1;align=center;verticalAlign=middle;resizable=0;points=[];" vertex="1" connectable="0" parent="IShbP4hHe31vie19D_xC-149">
          <mxGeometry x="0.8832" y="-1" relative="1" as="geometry">
            <mxPoint x="142" y="11" as="offset" />
          </mxGeometry>
        </mxCell>
        <mxCell id="IShbP4hHe31vie19D_xC-151" value="VARIATE!!!!!" style="text;html=1;strokeColor=none;fillColor=none;align=center;verticalAlign=middle;whiteSpace=wrap;rounded=0;" vertex="1" parent="1">
          <mxGeometry x="1170" y="1110" width="40" height="20" as="geometry" />
        </mxCell>
        <mxCell id="IShbP4hHe31vie19D_xC-152" value="" style="endArrow=classic;html=1;" edge="1" parent="1">
          <mxGeometry width="50" height="50" relative="1" as="geometry">
            <mxPoint x="689.0000000000002" y="1219.9999999999998" as="sourcePoint" />
            <mxPoint x="580" y="1220" as="targetPoint" />
            <Array as="points" />
          </mxGeometry>
        </mxCell>
        <mxCell id="IShbP4hHe31vie19D_xC-153" value="provides data&lt;br&gt;(bookList)" style="edgeLabel;html=1;align=center;verticalAlign=middle;resizable=0;points=[];" vertex="1" connectable="0" parent="IShbP4hHe31vie19D_xC-152">
          <mxGeometry x="-0.1533" y="2" relative="1" as="geometry">
            <mxPoint x="-6" y="18" as="offset" />
          </mxGeometry>
        </mxCell>
        <mxCell id="IShbP4hHe31vie19D_xC-156" value="" style="endArrow=classic;html=1;startArrow=none;startFill=0;" edge="1" parent="1" target="IShbP4hHe31vie19D_xC-11">
          <mxGeometry width="50" height="50" relative="1" as="geometry">
            <mxPoint x="465" y="1010" as="sourcePoint" />
            <mxPoint x="670" y="1010" as="targetPoint" />
            <Array as="points">
              <mxPoint x="495" y="1010" />
              <mxPoint x="515" y="1010" />
              <mxPoint x="585" y="1010" />
            </Array>
          </mxGeometry>
        </mxCell>
        <mxCell id="IShbP4hHe31vie19D_xC-157" value="provides data (bookInput)" style="edgeLabel;html=1;align=center;verticalAlign=middle;resizable=0;points=[];" vertex="1" connectable="0" parent="IShbP4hHe31vie19D_xC-156">
          <mxGeometry x="-0.167" y="-1" relative="1" as="geometry">
            <mxPoint x="18" y="9" as="offset" />
          </mxGeometry>
        </mxCell>
        <mxCell id="IShbP4hHe31vie19D_xC-159" value="" style="endArrow=classic;html=1;" edge="1" parent="1" target="IShbP4hHe31vie19D_xC-13">
          <mxGeometry width="50" height="50" relative="1" as="geometry">
            <mxPoint x="580.9199999999998" y="1260" as="sourcePoint" />
            <mxPoint x="339.0866666666668" y="1260" as="targetPoint" />
            <Array as="points" />
          </mxGeometry>
        </mxCell>
        <mxCell id="IShbP4hHe31vie19D_xC-160" value="render &lt;br&gt;bookList&lt;br&gt;Component" style="edgeLabel;html=1;align=center;verticalAlign=middle;resizable=0;points=[];" vertex="1" connectable="0" parent="IShbP4hHe31vie19D_xC-159">
          <mxGeometry x="-0.1533" y="2" relative="1" as="geometry">
            <mxPoint x="-9" y="-22" as="offset" />
          </mxGeometry>
        </mxCell>
      </root>
    </mxGraphModel>
  </diagram>
</mxfile>
